<?xml version="1.0" standalone="no"?>
<!DOCTYPE svg PUBLIC "-//W3C//DTD SVG 1.1//EN" "http://www.w3.org/Graphics/SVG/1.1/DTD/svg11.dtd" >
<svg xmlns="http://www.w3.org/2000/svg">
<metadata></metadata>
<defs>
<font id="fira_sansextrabold_italic" horiz-adv-x="1173" >
<font-face units-per-em="2048" ascent="1608" descent="-440" />
<missing-glyph horiz-adv-x="446" />
<glyph unicode="&#xfb01;" horiz-adv-x="1204" d="M-176 -199q125 45 187 114.5t81 205.5l101 721h-154l33 250h153l13 82q23 169 154.5 277t344.5 108q203 0 377 -89l-123 -229q-120 53 -219 53q-86 0 -127.5 -33t-52.5 -110l-8 -59h592l-152 -1092h-358l116 842h-233l-98 -705q-15 -108 -50.5 -195.5t-82.5 -148.5 t-115 -110t-135.5 -81t-155.5 -61z" />
<glyph unicode="&#xfb02;" horiz-adv-x="1312" d="M-176 -199q125 45 187 114.5t81 205.5l101 721h-154l33 250h153l13 82q23 170 146.5 277.5t328.5 107.5q146 0 258 -39l332 34l-173 -1230q-6 -42 5 -58t36 -16q16 0 48 8l36 -254q-90 -41 -223 -41q-146 0 -215.5 86t-46.5 246l139 987q-80 25 -153 25q-80 0 -116.5 -38 t-47.5 -118l-8 -59h186l-76 -250h-145l-98 -705q-15 -108 -50.5 -195.5t-82.5 -148.5t-115 -110t-135.5 -81t-155.5 -61z" />
<glyph horiz-adv-x="2048" />
<glyph horiz-adv-x="2048" />
<glyph horiz-adv-x="682" />
<glyph unicode="&#xd;" horiz-adv-x="446" />
<glyph unicode=" "  horiz-adv-x="446" />
<glyph unicode="&#x09;" horiz-adv-x="446" />
<glyph unicode="&#xa0;" horiz-adv-x="446" />
<glyph unicode="!" horiz-adv-x="468" d="M-8 141q0 86 65.5 151.5t153.5 65.5q74 0 124 -51t50 -125q0 -88 -65.5 -153.5t-153.5 -65.5q-76 0 -125 51t-49 127zM90 537l78 886h379l-172 -886h-285z" />
<glyph unicode="&#x22;" horiz-adv-x="903" d="M164 840l41 583h313l-121 -583h-233zM590 840l41 583h313l-121 -583h-233z" />
<glyph unicode="#" horiz-adv-x="1140" d="M-8 281l33 235h139l102 381h-112l32 238h144l67 254h297l-67 -254h166l67 254h299l-67 -254h102l-31 -238h-137l-102 -381h110l-35 -235h-139l-76 -281h-297l76 281h-168l-76 -281h-294l75 281h-108zM459 516h168l102 381h-168z" />
<glyph unicode="$" horiz-adv-x="1116" d="M-49 186l205 193q135 -135 309 -135q98 0 155.5 45t57.5 119q0 58 -41.5 95t-147.5 77q-352 127 -352 389q0 157 109.5 276t306.5 152l41 307h252l-45 -303q200 -28 348 -176l-180 -185q-139 109 -269 109q-88 0 -138 -33.5t-50 -93.5q0 -54 42 -87.5t163 -80.5 q166 -60 251 -157.5t85 -241.5q0 -75 -25 -146t-75.5 -136.5t-140 -114t-206.5 -66.5l-47 -326h-250l45 320q-131 14 -234 68.5t-169 131.5z" />
<glyph unicode="%" horiz-adv-x="1757" d="M121 987q0 75 25.5 149.5t74.5 138.5t131.5 104t186.5 40q143 0 233 -86.5t90 -230.5q0 -59 -15 -118t-48 -116t-80.5 -100.5t-118.5 -70.5t-156 -27q-142 0 -232.5 86.5t-90.5 230.5zM240 51l1128 1428l201 -138l-1133 -1427zM367 995q0 -112 98 -112q42 0 73 20.5 t46.5 54t22.5 67.5t7 71q0 110 -94 110q-47 0 -79.5 -22t-47.5 -57.5t-20.5 -67t-5.5 -64.5zM936 281q0 74 25.5 147.5t74.5 138t132.5 104.5t187.5 40q142 0 231.5 -86t89.5 -232q0 -75 -24.5 -148t-72.5 -137.5t-130.5 -104.5t-187.5 -40q-144 0 -235 86.5t-91 231.5z M1184 287q0 -111 96 -111q43 0 74.5 20t47.5 53t23 67t7 71q0 111 -97 111q-47 0 -79.5 -22t-46.5 -57.5t-19.5 -67t-5.5 -64.5z" />
<glyph unicode="&#x26;" horiz-adv-x="1613" d="M90 336q0 135 74.5 234t247.5 200q-81 94 -114.5 163t-33.5 152q0 49 14 98t50 100t89.5 89.5t139.5 63t193 24.5q196 0 308.5 -91t112.5 -234q0 -106 -72 -198.5t-243 -201.5l211 -235q67 108 125 254l283 -92q-98 -187 -236 -351l201 -209l-305 -139l-127 141 q-197 -141 -461 -141q-210 0 -333.5 103.5t-123.5 269.5zM473 365q0 -69 40.5 -108.5t121.5 -39.5q111 0 211 62l-256 288q-65 -51 -91 -97.5t-26 -104.5zM602 1094q0 -42 17.5 -78.5t60.5 -87.5q158 104 158 207q0 43 -30 69.5t-75 26.5q-60 0 -95.5 -36.5t-35.5 -100.5z " />
<glyph unicode="'" horiz-adv-x="477" d="M164 840l41 583h313l-121 -583h-233z" />
<glyph unicode="(" horiz-adv-x="643" d="M24.5 495.5q1.5 107.5 18.5 227.5q14 102 38.5 197t53 173t70.5 158t79 140t91.5 132.5t96 123t103.5 122.5l218 -161q-170 -204 -263 -414.5t-129 -482.5q-40 -265 -7.5 -482t145.5 -417l-248 -144q-52 89 -82 145t-70.5 143.5t-61 163t-37.5 172t-15.5 204z" />
<glyph unicode=")" horiz-adv-x="643" d="M-102 -174q169 202 261 413.5t130 483.5q39 265 7 481.5t-144 417.5l247 143q44 -77 69.5 -123.5t62.5 -122.5t56.5 -134t41 -140.5t28.5 -159.5t5.5 -174t-15.5 -200q-20 -141 -60 -270t-85.5 -226t-116 -202t-128 -176.5t-144.5 -172.5z" />
<glyph unicode="*" horiz-adv-x="903" d="M78 1079l129 283l235 -127l-12 287h320l-93 -287l263 133l53 -287l-283 -43l174 -198l-268 -183l-92 254l-160 -256l-219 183l227 200z" />
<glyph unicode="+" horiz-adv-x="1081" d="M86 541l39 278h309l43 324h293l-45 -324h309l-41 -278h-307l-47 -324h-291l47 324h-309z" />
<glyph unicode="," horiz-adv-x="495" d="M-80 -371l143 371q-65 47 -65 135q0 92 63 157.5t154 65.5q75 0 123.5 -48.5t48.5 -123.5q0 -54 -21.5 -106t-82.5 -160l-168 -291h-195z" />
<glyph unicode="-" horiz-adv-x="815" d="M70 502l39 278h663l-39 -278h-663z" />
<glyph unicode="." horiz-adv-x="491" d="M-8 141q0 86 65.5 151.5t153.5 65.5q74 0 124 -51t50 -125q0 -88 -65.5 -153.5t-153.5 -65.5q-76 0 -125 51t-49 127z" />
<glyph unicode="/" horiz-adv-x="1042" d="M27 -160l733 1839l305 -75l-731 -1840z" />
<glyph unicode="0" horiz-adv-x="1193" d="M70 500q0 84 9 168.5t31 176.5t55 173.5t84.5 156t115.5 128t153 85t193 31.5q220 0 337 -137t117 -395q0 -118 -18 -237.5t-65 -245.5t-117 -222t-184 -157.5t-257 -61.5q-220 0 -337 139t-117 398zM426 424q0 -107 29.5 -151t93.5 -44t105 40t73 142t57 287 q25 183 25 267q0 105 -29.5 146.5t-93.5 41.5q-63 0 -105 -42.5t-73.5 -144t-56.5 -280.5q-25 -173 -25 -262z" />
<glyph unicode="1" horiz-adv-x="946" d="M86 1100l512 289h320l-195 -1389h-346l143 1020l-313 -178z" />
<glyph unicode="2" horiz-adv-x="1050" d="M-25 0l33 256q151 132 249 219.5t177 163.5t120.5 124t69.5 94t36 79t8 74q0 62 -38.5 97.5t-103.5 35.5q-68 0 -126.5 -34.5t-127.5 -109.5l-194 187q104 112 236 172.5t280 60.5q213 0 329.5 -102t116.5 -260q0 -63 -10.5 -114.5t-47.5 -123.5t-103 -147.5t-181 -177.5 t-278 -222l543 4l-76 -276h-912z" />
<glyph unicode="3" horiz-adv-x="1054" d="M-72 182l219 178q52 -64 110.5 -93t135.5 -29q99 0 163.5 60t64.5 167q0 72 -45 104.5t-138 32.5h-121l74 246h78q58 0 101 19t65.5 49t32.5 60.5t10 61.5q0 55 -37.5 85t-105.5 30q-144 0 -281 -121l-156 203q232 184 506 184q207 0 316.5 -90t109.5 -237 q0 -41 -9 -80.5t-32 -82.5t-57.5 -79t-90 -67.5t-126.5 -51.5q118 -11 193 -83.5t75 -201.5q0 -59 -17 -121t-61 -128t-109 -117t-171 -84t-238 -33q-308 0 -459 219z" />
<glyph unicode="4" horiz-adv-x="1155" d="M10 287l33 239l498 901l297 -112l-404 -758h191l86 315h309l-45 -315h145l-37 -270h-145l-41 -287h-350l39 287h-576z" />
<glyph unicode="5" horiz-adv-x="1097" d="M-37 178l217 182q99 -127 244 -127q113 0 179.5 78.5t66.5 202.5q0 160 -150 160q-80 0 -162 -51l-241 2l106 764h869l-76 -259h-481l-39 -256q98 46 200 46q153 0 245.5 -100t92.5 -285q0 -73 -20 -149t-67.5 -153t-117 -136t-177 -96.5t-238.5 -37.5q-291 0 -451 215z " />
<glyph unicode="6" horiz-adv-x="1150" d="M59 467q0 81 15 170q51 356 246 569t477 213q189 0 309 -98l-156 -207q-77 51 -168 51q-105 0 -185.5 -84.5t-119.5 -242.5q133 102 289 102t249 -99t93 -278q0 -59 -13.5 -123t-40 -132.5t-73 -129t-107.5 -109.5t-148 -77.5t-189 -28.5q-241 0 -359.5 133t-118.5 371z M426 406q0 -99 30 -143t95 -44q45 0 81 25t57 62t35 85t19 89t5 79q0 74 -28 104.5t-87 30.5q-92 0 -189 -88q-18 -123 -18 -200z" />
<glyph unicode="7" horiz-adv-x="950" d="M37 74l594 1042h-537l39 273h909l-32 -244l-658 -1182z" />
<glyph unicode="8" horiz-adv-x="1185" d="M20 342q0 53 16.5 103.5t51.5 100t96.5 93.5t143.5 76q-160 110 -160 280q0 62 20 121.5t63 114.5t105 96.5t152 66.5t197 25q206 0 331 -90t125 -244q0 -94 -63 -184.5t-201 -159.5q221 -124 221 -327q0 -89 -41.5 -170t-117 -144t-192 -100t-255.5 -37 q-232 0 -362 106.5t-130 272.5zM383 360q0 -64 44 -102.5t120 -38.5q101 0 157 59t56 144q0 56 -35.5 92t-120.5 72l-67 24q-44 -25 -76 -58.5t-48 -68.5t-23 -65t-7 -58zM514 1008q0 -51 27.5 -87t87.5 -65l41 -16q143 93 143 229q0 49 -32.5 79t-90.5 30q-49 0 -85.5 -17 t-55 -44t-27 -54t-8.5 -55z" />
<glyph unicode="9" horiz-adv-x="1146" d="M86 193q269 60 411 147t214 248q-61 -58 -127 -85.5t-154 -27.5q-147 0 -242.5 102.5t-95.5 278.5q0 76 20 152.5t65 151t110.5 131.5t165 92.5t219.5 35.5q229 0 355 -121.5t126 -324.5q0 -89 -12 -173.5t-44 -178.5t-81.5 -176.5t-130 -164t-184 -145.5t-249.5 -115.5 t-321 -80.5zM453 872q0 -147 114 -147q108 0 203 109q16 109 16 165q0 88 -31.5 127t-99.5 39q-57 0 -99 -28.5t-63 -75t-30.5 -93.5t-9.5 -96z" />
<glyph unicode=":" horiz-adv-x="493" d="M-6 141q0 86 65.5 151.5t153.5 65.5q74 0 123 -51t49 -125q0 -88 -65.5 -153.5t-151.5 -65.5q-76 0 -125 51t-49 127zM90 836q0 85 66 151t153 66q74 0 124 -51t50 -125q0 -88 -66.5 -155t-152.5 -67q-75 0 -124.5 52.5t-49.5 128.5z" />
<glyph unicode=";" horiz-adv-x="503" d="M-72 -371l142 371q-66 48 -66 135q0 93 63.5 158t155.5 65q75 0 123.5 -48.5t48.5 -123.5q0 -54 -22 -107t-84 -159l-168 -291h-193zM96 836q0 85 66 151t155 66q73 0 122.5 -51t49.5 -125q0 -88 -66 -155t-153 -67q-75 0 -124.5 52.5t-49.5 128.5z" />
<glyph unicode="&#x3c;" horiz-adv-x="1054" d="M57 524l43 314l875 356l88 -266l-678 -246l594 -252l-148 -260z" />
<glyph unicode="=" horiz-adv-x="1052" d="M55 319l41 279h877l-39 -279h-879zM119 760l39 278h878l-39 -278h-878z" />
<glyph unicode="&#x3e;" horiz-adv-x="1050" d="M35 449l672 235l-592 262l145 248l774 -356l-45 -314l-872 -354z" />
<glyph unicode="?" horiz-adv-x="976" d="M115 1239q214 221 512 221q202 0 308.5 -86t106.5 -221q0 -82 -25.5 -146.5t-65.5 -104.5t-89 -72t-98 -57t-89.5 -51t-66.5 -63.5t-26 -85.5q0 -17 4 -41l-316 -47q-14 58 -14 99q0 71 22.5 127.5t58 93t79 66.5t87 54t79 48t58 56t22.5 71q0 76 -105 76 q-114 0 -244 -121zM219 141q0 86 65.5 151.5t153.5 65.5q73 0 122.5 -51t49.5 -125q0 -88 -65.5 -153.5t-153.5 -65.5q-76 0 -124 51t-48 127z" />
<glyph unicode="@" horiz-adv-x="2066" d="M70 375q0 99 19 202t60.5 210t102.5 204.5t151.5 183.5t200.5 149t255.5 99.5t311.5 36.5q192 0 350.5 -57.5t262 -157t159.5 -231.5t56 -283q0 -76 -13 -156t-38.5 -162t-68.5 -154.5t-98 -129.5t-132 -90t-166 -33q-112 0 -190.5 62t-86.5 141q-105 -195 -299 -195 q-167 0 -250.5 96t-83.5 259q0 84 16.5 170.5t57.5 177t102.5 160.5t161 114.5t222.5 44.5q85 0 179.5 -26.5t168.5 -71.5l-78 -606q-16 -109 65 -109q56 0 99.5 53.5t67.5 137t36 170t12 166.5q0 221 -135 335.5t-405 114.5q-124 0 -229 -28t-181 -75t-136 -112.5 t-98 -137.5t-63 -154t-35 -158t-10 -152q0 -171 66.5 -300.5t203.5 -204.5t330 -75q87 0 193.5 20.5t189.5 51.5l53 -248q-100 -38 -228 -62t-236 -24q-205 0 -373 61.5t-282 172t-176 264t-62 336.5zM889 346q0 -58 20.5 -83t61.5 -25q67 0 125 84l67 475q-29 14 -69 14 q-57 0 -99.5 -47t-64 -122t-31.5 -149.5t-10 -146.5z" />
<glyph unicode="A" horiz-adv-x="1198" d="M-115 0l613 1423h448l215 -1423h-393l-23 291h-372l-101 -291h-387zM467 561h260l-47 617z" />
<glyph unicode="B" horiz-adv-x="1245" d="M35 0l198 1423h424q133 0 233.5 -17t177 -54.5t116 -101.5t39.5 -154q0 -74 -26 -135t-72 -101.5t-99 -66.5t-115 -41q59 -12 105 -31t88 -52.5t65 -88t23 -127.5q0 -77 -21 -142.5t-71.5 -124t-128 -99t-196 -64t-269.5 -23.5h-471zM442 270h99q153 0 210.5 55.5 t57.5 157.5q0 135 -193 135h-124zM524 862h97q62 0 106.5 16.5t67.5 45t33 60t10 69.5q0 56 -43 81t-136 25h-94z" />
<glyph unicode="C" horiz-adv-x="1163" d="M66 553q0 87 12 174.5t39.5 177.5t68.5 170.5t101.5 151.5t135 122t173.5 81t213 30q278 0 434 -176l-205 -199q-96 99 -223 99q-81 0 -146 -43.5t-104.5 -110.5t-66 -154t-37 -166.5t-10.5 -154.5q0 -155 59.5 -230t169.5 -75q74 0 138.5 31.5t144.5 91.5l139 -221 q-94 -83 -215 -136t-256 -53q-266 0 -415.5 152.5t-149.5 437.5z" />
<glyph unicode="D" horiz-adv-x="1318" d="M35 0l198 1423h414q110 0 200 -13.5t176 -50.5t145 -96t94.5 -156t35.5 -224q0 -146 -24.5 -271t-84 -240t-151 -195.5t-234 -128.5t-323.5 -48h-446zM442 270h95q89 0 158 39.5t109.5 101t66.5 145.5t35 162.5t9 162.5q0 155 -62.5 213.5t-186.5 58.5h-99z" />
<glyph unicode="E" horiz-adv-x="1052" d="M35 0l198 1423h887l-76 -268h-477l-43 -303h416l-33 -260h-418l-47 -324h512l-36 -268h-883z" />
<glyph unicode="F" horiz-adv-x="976" d="M35 0l198 1423h861l-76 -268h-451l-47 -342h395l-38 -268h-394l-77 -545h-371z" />
<glyph unicode="G" horiz-adv-x="1306" d="M63 530q0 134 26.5 262t88 250.5t151.5 214t227.5 147.5t305.5 56q148 0 264 -50.5t195 -135.5l-213 -193q-59 59 -116 85t-136 26q-94 0 -167.5 -44t-118.5 -114t-74.5 -164t-40.5 -184.5t-11 -185.5q0 -144 51 -204t156 -60q96 0 176 38l41 293h-161l4 260h553 l-97 -710q-120 -73 -261 -113.5t-275 -40.5q-285 0 -426.5 144t-141.5 423z" />
<glyph unicode="H" horiz-adv-x="1331" d="M35 0l198 1423h371l-76 -538h369l76 538h373l-199 -1423h-373l82 592h-369l-81 -592h-371z" />
<glyph unicode="I" horiz-adv-x="591" d="M35 0l198 1423h373l-198 -1423h-373z" />
<glyph unicode="J" horiz-adv-x="641" d="M-131 -98q70 26 116 58t73 76t40 89t23 113l166 1185h372l-167 -1204q-15 -110 -55 -199t-90.5 -148t-122.5 -107.5t-137 -76.5t-150 -55z" />
<glyph unicode="K" horiz-adv-x="1300" d="M35 0l198 1423h371l-198 -1423h-371zM524 758l504 665h391l-514 -655l352 -768h-421z" />
<glyph unicode="L" horiz-adv-x="1044" d="M35 0l198 1423h371l-158 -1128h537l-80 -295h-868z" />
<glyph unicode="M" horiz-adv-x="1599" d="M-25 0l301 1423h453l51 -974l305 974h476l-95 -1423h-366l57 532q27 287 88 613l-327 -998h-357l-72 996q-8 -329 -59 -617l-90 -526h-365z" />
<glyph unicode="N" horiz-adv-x="1323" d="M35 0l198 1423h463l224 -1112q-8 106 -8 226v61q2 154 28 328l70 497h327l-198 -1423h-471l-217 1110q6 -76 6 -183q0 -48 -1 -102q-4 -175 -30 -364l-66 -461h-325z" />
<glyph unicode="O" horiz-adv-x="1392" d="M66 547q0 86 11.5 172t37.5 177t66 172t100.5 153.5t136.5 125t178.5 83t222.5 30.5q267 0 411 -153t144 -433q0 -122 -22 -241.5t-77.5 -243t-138.5 -216t-217 -151.5t-301 -59q-265 0 -408.5 153.5t-143.5 430.5zM449 508q0 -143 49 -207.5t149 -64.5q59 0 109 26 t84.5 68.5t61.5 101.5t43 120.5t26.5 130.5t14 125.5t3.5 111.5q0 140 -48 204t-148 64q-59 0 -109 -26t-85 -69t-62 -102t-43 -120.5t-26.5 -129.5t-14.5 -124t-4 -109z" />
<glyph unicode="P" horiz-adv-x="1218" d="M35 0l198 1423h478q254 0 395 -103.5t141 -301.5q0 -80 -20.5 -156.5t-68.5 -150.5t-118.5 -129t-180 -89t-243.5 -34h-147l-63 -459h-371zM508 729h106q71 0 123 26t78 68.5t37.5 86t11.5 89.5q0 158 -192 158h-105z" />
<glyph unicode="Q" horiz-adv-x="1390" d="M66 547q0 86 11.5 172t37.5 177t66 172t100.5 153.5t136.5 125t178.5 83t222.5 30.5q267 0 411 -153t144 -433q0 -112 -20.5 -220.5t-65 -217t-126 -199.5t-191.5 -147q144 -6 235.5 -38t167.5 -95l-258 -289q-43 63 -85 109.5t-102 92t-138.5 69.5t-172.5 24 q-265 0 -408.5 153.5t-143.5 430.5zM449 508q0 -143 49 -207.5t149 -64.5q59 0 109 26t84.5 68.5t61.5 101.5t43 120.5t26.5 130.5t14 125.5t3.5 111.5q0 140 -48 204t-148 64q-59 0 -109 -26t-85 -69t-62 -102t-43 -120.5t-26.5 -129.5t-14.5 -124t-4 -109z" />
<glyph unicode="R" horiz-adv-x="1249" d="M35 0l198 1423h486q264 0 396 -89.5t132 -274.5q0 -76 -13 -136t-45.5 -122t-96.5 -116t-158 -99l262 -586h-405l-201 524h-111l-73 -524h-371zM514 782h127q65 0 111.5 23.5t69.5 62.5t32.5 77.5t9.5 80.5q0 68 -47 100.5t-143 32.5h-107z" />
<glyph unicode="S" horiz-adv-x="1165" d="M-41 174l211 213q133 -139 322 -139q107 0 168 43t61 115q0 66 -46.5 108.5t-166.5 83.5q-201 66 -290 166t-89 244q0 85 34 163.5t101.5 144t183 105t263.5 39.5q298 0 479 -190l-193 -197q-124 115 -282 115q-89 0 -142 -37t-53 -100q0 -53 46.5 -84.5t185.5 -81.5 q183 -60 272.5 -157.5t89.5 -250.5q0 -74 -19 -143.5t-65.5 -138t-115.5 -119t-178 -82t-244 -31.5q-329 0 -533 211z" />
<glyph unicode="T" horiz-adv-x="1097" d="M96 1135l39 288h1092l-78 -288h-330l-160 -1135h-372l159 1135h-350z" />
<glyph unicode="U" horiz-adv-x="1304" d="M80 481l133 942h371l-131 -936q-7 -46 -7 -83q0 -67 22 -105q34 -59 134 -59q103 0 158 62t74 192l131 929h372l-131 -948q-16 -110 -64 -202.5t-125.5 -162t-191 -108.5t-250.5 -39q-141 0 -244.5 37.5t-162.5 106.5q-60 69 -82 163q-13 55 -13 118q0 45 7 93z" />
<glyph unicode="V" horiz-adv-x="1155" d="M84 1423h389l80 -1147l381 1147h385l-571 -1423h-472z" />
<glyph unicode="W" horiz-adv-x="1724" d="M137 1423h367l-45 -1142l329 1142h394l-8 -1142l301 1142h360l-418 -1423h-483l-2 1055l-309 -1055h-471z" />
<glyph unicode="X" horiz-adv-x="1193" d="M-90 0l487 758l-260 665h398l112 -450l254 450h397l-452 -657l-2 -2l289 -764h-400l-143 532l-281 -532h-399z" />
<glyph unicode="Y" horiz-adv-x="1220" d="M100 1423h400l149 -604l320 604h397l-571 -893l-74 -530h-373l74 528z" />
<glyph unicode="Z" horiz-adv-x="1105" d="M-49 0l37 281l714 852h-532l39 290h965l-39 -284l-699 -840h594l-78 -299h-1001z" />
<glyph unicode="[" horiz-adv-x="643" d="M-70 -256l275 1946h569l-39 -269h-227l-199 -1411h228l-37 -266h-570z" />
<glyph unicode="\" horiz-adv-x="1042" d="M274 1604l324 73l219 -1839l-323 -74z" />
<glyph unicode="]" horiz-adv-x="641" d="M-84 -256l39 266h229l199 1413h-229l39 267h567l-275 -1946h-569z" />
<glyph unicode="^" horiz-adv-x="1132" d="M96 1079l473 654h326l291 -654h-344l-146 385l-245 -385h-355z" />
<glyph unicode="_" horiz-adv-x="1042" d="M-115 -367l39 279h1016l-39 -279h-1016z" />
<glyph unicode="`" horiz-adv-x="698" d="M186 1462l172 271l408 -287l-119 -180z" />
<glyph unicode="a" d="M37 401q0 99 20.5 197t69 195t119.5 170.5t181.5 119t246.5 45.5q256 0 465 -120l-99 -676q-4 -36 -4 -47q0 -34 12.5 -52.5t41.5 -29.5l-103 -234q-99 6 -171 51.5t-99 129.5q-124 -187 -322 -187q-176 0 -267 116t-91 322zM403 401q0 -99 29.5 -137.5t79.5 -38.5 q94 0 180 137l74 496q-49 16 -104 16q-69 0 -121.5 -44.5t-81 -117t-42.5 -151t-14 -160.5z" />
<glyph unicode="b" horiz-adv-x="1191" d="M37 59l205 1463l360 37l-78 -555q58 57 138.5 90.5t154.5 33.5q167 0 252.5 -109t85.5 -314q0 -72 -8 -141t-29 -144t-53.5 -139.5t-84 -124t-117.5 -101.5t-158.5 -67t-202.5 -25q-237 0 -465 96zM420 248q58 -23 121 -23q65 0 114.5 45t76.5 117t40.5 149.5t13.5 155.5 q0 97 -29.5 134.5t-82.5 37.5q-98 0 -182 -116z" />
<glyph unicode="c" horiz-adv-x="960" d="M39 438q0 89 21 180.5t69.5 184t118.5 164t178.5 116.5t239.5 45q216 0 358 -145l-174 -207q-82 76 -182 76q-73 0 -126 -40.5t-79 -107.5t-37.5 -135t-11.5 -141q0 -100 40 -141t115 -41q51 0 96 17t109 56l131 -229q-176 -127 -385 -127q-227 0 -354 128t-127 347z" />
<glyph unicode="d" horiz-adv-x="1208" d="M47 403q0 95 17 191.5t58.5 193.5t101.5 171.5t154.5 121.5t209.5 47q67 0 126 -25.5t99 -70.5l74 527l354 -37l-213 -1522h-319l2 147q-130 -184 -322 -184q-171 0 -256.5 115t-85.5 325zM416 403q0 -100 27 -139t75 -39q54 0 104.5 50.5t104.5 136.5l55 389 q-28 35 -57.5 50t-71.5 15q-66 0 -115 -47t-74 -121.5t-36.5 -148.5t-11.5 -146z" />
<glyph unicode="e" horiz-adv-x="1101" d="M41 428q0 66 10 132.5t33 136t57.5 132t86 117.5t115 95t148.5 63.5t183 23.5q199 0 310.5 -85.5t111.5 -219.5q0 -364 -697 -430q11 -168 179 -168q67 0 131 24t143 77l127 -213q-211 -150 -449 -150q-243 0 -366 125t-123 340zM414 606q92 6 159 28t100 52.5t47.5 59 t14.5 55.5q0 92 -98 92q-47 0 -86 -24t-65 -66.5t-43.5 -91t-28.5 -105.5z" />
<glyph unicode="f" horiz-adv-x="720" d="M-176 -199q125 45 187 114.5t81 205.5l101 721h-154l33 250h153l13 82q23 170 145.5 277.5t325.5 107.5q180 0 317 -93l-123 -215q-72 43 -162 43q-66 0 -102.5 -34t-46.5 -109l-8 -59h252l-74 -250h-213l-98 -705q-15 -108 -50.5 -195.5t-82.5 -148.5t-115 -110 t-135.5 -81t-155.5 -61z" />
<glyph unicode="g" horiz-adv-x="1175" d="M2 -336l119 234q159 -86 297 -86q47 0 83 8.5t71 31.5t58.5 70t33.5 117l14 96q-121 -135 -281 -135q-175 0 -267.5 116t-92.5 312q0 93 20.5 186.5t69.5 187t121 165t185 116.5t251 45q253 0 465 -120l-131 -908q-42 -297 -180.5 -429t-415.5 -132q-102 0 -215 33.5 t-205 91.5zM406 438q0 -170 110 -170q98 0 189 133l69 457q-47 16 -102 16q-71 0 -125.5 -43t-83.5 -111.5t-43 -140t-14 -141.5z" />
<glyph unicode="h" horiz-adv-x="1155" d="M29 0l213 1522l360 37l-92 -650q58 98 152.5 158.5t187.5 60.5q136 0 202 -88q50 -66 50 -168q0 -34 -6 -73l-111 -799h-358l106 709q5 30 5 52q0 29 -8 44q-14 26 -50 26q-44 0 -99.5 -65.5t-111.5 -181.5l-82 -584h-358z" />
<glyph unicode="i" horiz-adv-x="567" d="M29 0l151 1092h359l-152 -1092h-358zM207 1485q12 84 76 139t153 55q92 0 142 -59q41 -48 42 -118q0 -15 -2 -32q-11 -82 -75.5 -137t-153.5 -55q-91 0 -142 59q-42 49 -42 117q0 15 2 31z" />
<glyph unicode="j" horiz-adv-x="557" d="M-229 -199q124 45 185 114.5t81 205.5l135 971h358l-135 -955q-15 -108 -50.5 -195.5t-82.5 -148.5t-114 -110t-134.5 -81t-154.5 -61zM199 1485q12 84 76 139t153 55q92 0 142 -59q42 -48 42 -118q0 -16 -2 -32q-11 -82 -75.5 -137t-153.5 -55q-91 0 -142 59 q-42 49 -42 117q0 15 2 31z" />
<glyph unicode="k" horiz-adv-x="1175" d="M29 0l213 1522l362 37l-82 -596q154 165 357 165q138 0 219.5 -72t81.5 -190q0 -256 -283 -381l188 -485h-391l-180 524q167 55 235 122.5t68 152.5q0 39 -23 59.5t-63 20.5q-125 0 -248 -197l-96 -682h-358z" />
<glyph unicode="l" horiz-adv-x="591" d="M59 299l172 1223l361 37l-172 -1235q-6 -42 5 -58t36 -16q15 0 47 8l37 -254q-90 -41 -221 -41q-148 1 -218 87q-53 65 -53 173q0 36 6 76z" />
<glyph unicode="m" horiz-adv-x="1691" d="M29 0l151 1092h312l-3 -170q63 97 151.5 151.5t180.5 54.5q100 0 163.5 -50.5t80.5 -145.5q64 91 152 143.5t174 52.5q133 0 199 -88q50 -66 49 -168q0 -34 -5 -73l-112 -799h-357l107 709q4 29 4 51q0 30 -8 45q-14 26 -47 26q-41 0 -91 -63t-94 -172l-82 -596h-358 l106 709q4 27 4 49q0 73 -53 73q-43 0 -93 -65t-91 -178l-82 -588h-358z" />
<glyph unicode="n" horiz-adv-x="1155" d="M29 0l151 1092h312l-3 -187q65 100 166 161.5t195 61.5q136 0 202 -88q50 -66 50 -168q0 -34 -6 -73l-111 -799h-358l106 709q5 30 5 52q0 29 -8 44q-14 26 -50 26q-44 0 -99.5 -65.5t-111.5 -181.5l-82 -584h-358z" />
<glyph unicode="o" d="M41 430q0 70 9.5 138t32 138t55.5 131t83.5 115t113 92.5t146.5 61t181 22.5q222 0 346 -125q122 -123 122 -334v-7q-1 -99 -20 -193.5t-65.5 -187.5t-115 -162.5t-177.5 -112.5t-244 -43q-221 0 -344 123.5t-123 343.5zM408 410q0 -97 31 -140t98 -43q47 0 84.5 22.5 t61 62t40 84.5t25 100t12 98t4.5 88v6q0 90 -30 132q-32 44 -99 44q-56 0 -98.5 -33t-66 -81.5t-38.5 -114t-19.5 -118.5t-4.5 -107z" />
<glyph unicode="p" horiz-adv-x="1202" d="M-37 -461l217 1553h318v-117q148 153 319 153q167 0 252.5 -109t85.5 -314q0 -100 -18 -198.5t-61.5 -198.5t-107.5 -175t-165.5 -122.5t-227.5 -47.5q-97 0 -194 25l-55 -410zM420 248q58 -23 121 -23q65 0 114.5 45t76.5 117t40.5 149.5t13.5 155.5q0 97 -29.5 134.5 t-82.5 37.5q-100 0 -182 -116z" />
<glyph unicode="q" d="M35 401q0 104 21 203.5t70 195.5t121.5 168t183.5 116t247 44q256 0 465 -120l-199 -1432l-369 -37l84 545q-29 -43 -104.5 -82t-165.5 -39q-172 0 -263 116.5t-91 321.5zM403 401q0 -176 111 -176q96 0 182 137l74 496q-49 16 -104 16q-69 0 -122 -44.5t-82.5 -116.5 t-44 -151.5t-14.5 -160.5z" />
<glyph unicode="r" horiz-adv-x="811" d="M29 0l151 1092h312l-3 -199q53 106 137.5 168.5t168.5 62.5q59 0 108 -18l-100 -352q-56 16 -94 16q-48 0 -87.5 -21.5t-69.5 -64t-52 -89.5t-45 -114l-68 -481h-358z" />
<glyph unicode="s" horiz-adv-x="976" d="M-45 147l180 189q126 -117 283 -117q71 0 110 23t39 65q0 41 -38.5 65t-172.5 70q-274 95 -274 324q0 155 128 258.5t353 103.5q114 0 226.5 -38.5t179.5 -102.5l-156 -199q-51 40 -119 62t-131 22q-125 0 -125 -71q0 -36 36.5 -56t170.5 -63q138 -46 207.5 -126.5 t69.5 -207.5q0 -59 -16 -112.5t-53.5 -104t-93.5 -87.5t-142.5 -59t-194.5 -22q-144 0 -269 50.5t-198 133.5z" />
<glyph unicode="t" horiz-adv-x="784" d="M39 842l33 250h155l68 237l313 37l-37 -274h242l-70 -250h-206l-64 -459q-4 -30 -5 -52q0 -33 10 -51q16 -30 61 -30q55 0 114 33l92 -238q-68 -40 -153.5 -61t-161.5 -21q-325 0 -325 316q0 48 8 104l65 459h-139z" />
<glyph unicode="u" horiz-adv-x="1142" d="M59 309l111 783h358l-98 -717q-4 -29 -4 -50q0 -31 8 -47q14 -26 53 -26q80 0 175 154l96 686h356l-151 -1092h-312l6 150q-152 -187 -340 -187q-152 0 -216 92q-48 68 -48 176q0 37 6 78z" />
<glyph unicode="v" horiz-adv-x="1042" d="M53 1092h383l53 -822l277 822h375l-475 -1092h-428z" />
<glyph unicode="w" horiz-adv-x="1531" d="M80 1092h360l-26 -816l268 816h340l16 -816l224 816h342l-367 -1092h-416l-22 766l-234 -766h-415z" />
<glyph unicode="x" horiz-adv-x="1042" d="M-106 0l413 580l-233 512h395l80 -336l168 336h379l-353 -517l254 -575h-393l-112 381l-213 -381h-385z" />
<glyph unicode="y" horiz-adv-x="1052" d="M-41 -209q157 17 238.5 64t138.5 147l-119 -2l-164 1092h373l47 -863l303 863h375l-475 -1094q-193 -438 -709 -459z" />
<glyph unicode="z" horiz-adv-x="931" d="M-61 0l32 256l518 565h-395l39 271h836l-33 -256l-514 -564h446l-69 -272h-860z" />
<glyph unicode="{" horiz-adv-x="643" d="M4 567l43 299q75 0 108.5 39.5t45.5 132.5l47 340q10 72 29 123t56 95t93.5 70.5t141.5 41t200 14.5l-31 -249q-85 0 -117.5 -26.5t-41.5 -92.5l-48 -348q-21 -137 -84 -200t-182 -93q42 -9 72.5 -21t58.5 -34t40.5 -52.5t19.5 -76t-4 -105.5l-50 -348q-9 -67 14 -91 t105 -24l-28 -250q-254 0 -353.5 88t-75.5 262l48 340q14 94 -7 130t-100 36z" />
<glyph unicode="|" horiz-adv-x="731" d="M92 -217l262 1878h334l-262 -1878h-334z" />
<glyph unicode="}" horiz-adv-x="641" d="M-80 -289l33 250q84 0 116.5 26.5t43.5 92.5l47 348q19 136 82.5 199.5t183.5 93.5q-35 7 -61.5 16.5t-51.5 25t-40 37t-27 51.5t-11.5 69t5.5 90l49 348q9 67 -14 91t-105 24l29 249q254 0 353 -88t75 -262l-47 -340q-14 -94 6.5 -130t99.5 -36l-43 -299 q-75 0 -109.5 -39.5t-46.5 -132.5l-47 -340q-12 -90 -39.5 -149.5t-85 -106t-154.5 -67.5t-241 -21z" />
<glyph unicode="~" horiz-adv-x="1046" d="M25 580q35 58 70 102.5t81 86.5t102.5 64.5t118.5 22.5q53 0 97 -12.5t72.5 -31t53 -36.5t51 -30.5t52.5 -12.5q36 0 65.5 18t44 36.5t41.5 58.5l181 -109q-35 -58 -70.5 -102.5t-81.5 -85.5t-102 -63.5t-119 -22.5q-53 0 -97 13t-73 31.5t-54 36.5t-51.5 31t-52.5 13 q-23 0 -42.5 -7.5t-31.5 -14.5t-29 -27.5t-23.5 -30t-24.5 -37.5z" />
<glyph unicode="&#xa1;" horiz-adv-x="462" d="M-88 -422l174 897h283l-80 -897h-377zM84 836q0 85 66 151t153 66q74 0 123 -51t49 -125q0 -88 -65.5 -155t-151.5 -67q-75 0 -124.5 52.5t-49.5 128.5z" />
<glyph unicode="&#xa2;" horiz-adv-x="960" d="M39 438q0 77 16 157t52.5 163t89 151.5t133 122.5t178.5 78l45 311h248l-43 -301q156 -24 266 -137l-174 -207q-82 76 -182 76q-73 0 -126 -40.5t-79 -107.5t-37.5 -135t-11.5 -141q0 -100 40 -141t115 -41q51 0 96 17t109 56l131 -229q-141 -103 -307 -123l-43 -301 h-250l45 320q-149 43 -230 161.5t-81 290.5z" />
<glyph unicode="&#xa3;" horiz-adv-x="1120" d="M-29 0l35 260q61 16 99.5 37.5t59 53.5t29 63.5t13.5 83.5l20 131h-137l27 182h135l27 190q27 195 152 306.5t339 111.5q278 0 406 -215l-232 -151q-28 56 -62.5 77t-88.5 21q-143 0 -164 -158l-25 -182h359l-29 -182h-354l-17 -117q-13 -88 -47.5 -144.5t-116.5 -97.5 l609 2l-78 -272h-959z" />
<glyph unicode="&#xa4;" horiz-adv-x="1146" d="M29 305l155 156q-65 111 -65 239q0 132 65 238l-155 158l151 153l160 -159q108 59 233 59q130 0 238 -59l158 159l151 -153l-153 -156q65 -111 65 -240q0 -132 -67 -241l155 -154l-151 -151l-160 155q-103 -59 -236 -59q-131 0 -231 59l-162 -155zM389 700 q0 -101 47.5 -156t138.5 -55q90 0 136.5 55t46.5 156q0 99 -46.5 153t-136.5 54q-91 0 -138.5 -54t-47.5 -153z" />
<glyph unicode="&#xa5;" horiz-adv-x="1161" d="M96 1389h371l154 -568l309 568h375l-441 -664h187l-27 -182h-262l-21 -133h267l-27 -183h-264l-33 -227h-354l30 227h-262l25 183h264l19 133h-265l27 182h184z" />
<glyph unicode="&#xa6;" horiz-adv-x="731" d="M92 -217l105 754h335l-106 -754h-334zM248 907l106 754h334l-104 -754h-336z" />
<glyph unicode="&#xa7;" horiz-adv-x="1114" d="M29 -53l137 207q128 -86 250 -86q162 0 162 90q0 41 -39.5 67t-169.5 70q-132 39 -201.5 106.5t-69.5 178.5q0 95 57.5 163.5t155.5 122.5q-94 84 -94 205q0 159 129 252.5t350 93.5q112 0 219.5 -35t186.5 -92l-144 -196q-116 77 -249 77q-150 0 -150 -90q0 -39 40 -65 t167 -68q133 -41 201.5 -107.5t68.5 -178.5q0 -101 -55 -170.5t-156 -124.5q97 -81 97 -199q0 -68 -28 -128t-84.5 -110t-155.5 -79t-230 -29q-227 0 -395 125zM416 643q0 -76 119 -125q35 -13 118 -51q68 71 68 129q0 39 -35 71t-117 60q-22 7 -60 22.5t-40 16.5 q-53 -58 -53 -123z" />
<glyph unicode="&#xa8;" horiz-adv-x="956" d="M193 1489q9 69 66.5 118.5t129.5 49.5q76 0 122 -53.5t34 -128.5q-9 -71 -66.5 -120.5t-130.5 -49.5q-75 0 -120 53t-35 131zM672 1489q9 69 67 118.5t129 49.5q78 0 123 -53.5t33 -128.5q-9 -71 -65.5 -120.5t-129.5 -49.5q-75 0 -121 53t-36 131z" />
<glyph unicode="&#xa9;" horiz-adv-x="1658" d="M123 885q0 143 56 272.5t150.5 222t225.5 147t276 54.5t275.5 -54.5t224.5 -147t149.5 -222t55.5 -272.5t-55.5 -272t-149.5 -221.5t-224.5 -147t-275.5 -54.5q-194 0 -356.5 92t-257 252t-94.5 351zM330 885q0 -218 143 -367t358 -149q141 0 256 68.5t179.5 186.5 t64.5 261t-64.5 261t-179.5 186.5t-256 68.5q-215 0 -358 -149t-143 -367zM465 887q0 185 103 295t268 110q162 0 276 -108l-108 -135q-63 51 -140 51q-65 0 -104 -51t-39 -162q0 -215 137 -215q88 0 164 61l98 -143q-119 -113 -282 -113q-173 0 -273 107.5t-100 302.5z" />
<glyph unicode="&#xaa;" horiz-adv-x="1001" d="M0 0l37 279h842l-37 -279h-842zM115 782q0 61 22.5 112.5t72.5 95t141.5 68.5t217.5 25h64l2 15q4 32 4 39q0 35 -24 47t-87 12q-86 0 -229 -43l-45 205q182 65 344 65q182 0 267 -61t85 -186q0 -26 -4 -76l-39 -260q-8 -30 0 -54.5t41 -35.5l-90 -205q-157 6 -217 112 q-101 -120 -272 -120q-118 0 -186 70t-68 175zM440 819q0 -55 56 -55q58 0 100 45l14 106h-30q-140 0 -140 -96z" />
<glyph unicode="&#xab;" horiz-adv-x="1296" d="M47 467l31 227l450 459l205 -149l-315 -422l196 -422l-239 -150zM618 467l31 227l451 459l205 -149l-316 -422l195 -422l-240 -150z" />
<glyph unicode="&#xac;" horiz-adv-x="1081" d="M86 537l39 278h909l-86 -600h-291l45 322h-616z" />
<glyph unicode="&#xad;" horiz-adv-x="815" d="M70 502l39 278h663l-39 -278h-663z" />
<glyph unicode="&#xae;" horiz-adv-x="1302" d="M76 987q0 161 75 292t207 205.5t295 74.5q122 0 228.5 -44t182.5 -119.5t119.5 -181.5t43.5 -227q0 -161 -74 -291t-205.5 -204t-294.5 -74t-295 74t-207 204t-75 291zM250 987q0 -184 113.5 -303t289.5 -119t288 119t112 303q0 183 -112 303.5t-288 120.5t-289.5 -120.5 t-113.5 -303.5zM432 715v581h176q281 0 281 -180q0 -55 -31 -96t-84 -64l150 -241h-179l-114 209h-43v-209h-156zM588 1051h59q36 0 59 17t23 52q0 62 -84 62h-57v-131z" />
<glyph unicode="&#xaf;" horiz-adv-x="745" d="M166 1335l35 248h635l-35 -248h-635z" />
<glyph unicode="&#xb0;" horiz-adv-x="1042" d="M147 1114q10 79 51 146t99 109.5t125.5 66.5t134.5 24q69 0 131.5 -25t109.5 -69.5t69.5 -114t11.5 -151.5q-15 -104 -80.5 -186t-153 -123t-178.5 -41q-69 0 -131.5 25.5t-109 71.5t-69 116t-10.5 151zM383 1102q-9 -65 18 -105.5t86 -40.5q62 0 104.5 44.5t51.5 113.5 q9 64 -18 103.5t-86 39.5q-62 0 -104.5 -43t-51.5 -112z" />
<glyph unicode="&#xb1;" horiz-adv-x="1081" d="M10 0l39 279h879l-39 -279h-879zM111 721l41 278h307l43 324h293l-45 -324h309l-39 -278h-309l-47 -324h-291l47 324h-309z" />
<glyph unicode="&#xb2;" horiz-adv-x="796" d="M35 655l22 187q260 207 334.5 279.5t83.5 135.5q5 39 -16.5 64t-61.5 25q-42 0 -77.5 -20.5t-79.5 -65.5l-144 120q68 75 157.5 118.5t192.5 43.5q160 0 237.5 -81t61.5 -193q-9 -62 -38 -112t-110 -123t-232 -179l340 2l-54 -201h-616z" />
<glyph unicode="&#xb3;" horiz-adv-x="796" d="M8 774l154 129q67 -78 162 -78q52 0 87.5 26t41.5 75q7 47 -19.5 69.5t-89.5 22.5h-82l53 178h54q106 0 118 80q5 32 -18 52t-66 20q-90 0 -180 -74l-112 145q143 123 342 123q154 0 232 -65t65 -166q-25 -152 -224 -201q100 -6 153.5 -61t39.5 -162 q-16 -107 -120 -182.5t-275 -75.5q-217 0 -316 145z" />
<glyph unicode="&#xb4;" horiz-adv-x="698" d="M184 1448l488 285l100 -271l-516 -196z" />
<glyph unicode="&#xb5;" horiz-adv-x="1167" d="M-37 -457l217 1549h359l-107 -756q-15 -105 66 -105q89 0 164 113l104 748h356l-100 -719q-31 -224 -2 -375l-332 -33q-19 56 -22 164q-88 -143 -220 -143q-77 0 -120 37q13 -56 15 -101.5t-11 -165.5l-27 -178z" />
<glyph unicode="&#xb6;" horiz-adv-x="1624" d="M178 981q32 209 193 329t424 111v-2l2 2l729 2l-260 -1845l-316 -41l228 1637h-172l-222 -1596l-315 -41l139 991q-158 3 -261.5 62t-145 159t-23.5 232z" />
<glyph unicode="&#xb7;" horiz-adv-x="491" d="M57 610q0 85 66 151t153 66q75 0 125 -51t50 -125q0 -89 -66.5 -155t-153.5 -66q-76 0 -125 52t-49 128z" />
<glyph unicode="&#xb8;" horiz-adv-x="663" d="M-88 -481l100 157q55 -34 121 -34q102 0 105 63q1 32 -39.5 44.5t-139.5 12.5l68 271h195l-21 -125q94 -12 142.5 -62t48.5 -129q0 -44 -18.5 -88.5t-56.5 -86t-109 -67.5t-165 -26q-135 0 -231 70z" />
<glyph unicode="&#xb9;" horiz-adv-x="796" d="M94 1335l342 187h238l-121 -867h-256l86 619l-195 -115z" />
<glyph unicode="&#xba;" horiz-adv-x="1001" d="M-14 0l39 279h876l-39 -279h-876zM115 897q0 58 10.5 115.5t32.5 118t61 112t91.5 92.5t129 64.5t168.5 23.5q186 0 294 -94.5t108 -269.5q0 -68 -14 -136t-50 -139t-90 -125t-142 -88t-198 -34q-185 0 -293 94t-108 266zM438 887q0 -64 22 -92.5t68 -28.5q48 0 82 31.5 t49 83t21 98.5t6 98q0 62 -22 89.5t-68 27.5q-48 0 -81.5 -31t-49 -81.5t-21.5 -97.5t-6 -97z" />
<glyph unicode="&#xbb;" horiz-adv-x="1296" d="M4 160l318 422l-199 422l242 149l325 -459l-31 -227l-450 -457zM573 160l316 422l-197 422l240 149l328 -459l-31 -227l-451 -457z" />
<glyph unicode="&#xbc;" horiz-adv-x="1939" d="M80 1237l342 186h237l-120 -866h-256l86 619l-195 -115zM365 -78l1058 1637l191 -103l-1057 -1636zM1124 166l25 174l315 547l207 -82l-252 -447h125l76 187h192l-26 -187h90l-29 -192h-88l-22 -166h-246l22 166h-389z" />
<glyph unicode="&#xbd;" horiz-adv-x="1939" d="M80 1237l342 186h237l-120 -866h-256l86 619l-195 -115zM365 -78l1058 1637l191 -103l-1057 -1636zM1161 0l23 186q258 206 333.5 279.5t84.5 136.5q5 39 -16 63.5t-62 24.5q-43 0 -79 -20.5t-79 -65.5l-143 121q68 75 157.5 118.5t192.5 43.5q160 0 237.5 -81.5 t61.5 -193.5q-9 -62 -38.5 -112t-110 -122.5t-232.5 -178.5l340 2l-53 -201h-617z" />
<glyph unicode="&#xbe;" horiz-adv-x="1939" d="M-6 676l153 129q67 -78 162 -78q52 0 87.5 25.5t41.5 74.5q8 47 -18.5 70t-89.5 23h-82l53 178h53q107 0 119 80q5 32 -18 51.5t-66 19.5q-91 0 -180 -73l-113 145q143 123 342 123q154 0 232 -65.5t65 -166.5q-12 -75 -65.5 -124.5t-157.5 -75.5q100 -6 153.5 -61.5 t39.5 -162.5q-16 -107 -120.5 -182.5t-275.5 -75.5q-215 0 -315 146zM365 -78l1058 1637l191 -103l-1057 -1636zM1124 166l25 174l315 547l207 -82l-252 -447h125l76 187h192l-26 -187h90l-29 -192h-88l-22 -166h-246l22 166h-389z" />
<glyph unicode="&#xbf;" horiz-adv-x="978" d="M-76 -154q0 65 15.5 119t42.5 91t61 67.5t72.5 53t76.5 43t72 41t61 43t42.5 53.5t15.5 69q0 29 -4 41l315 47q15 -47 15 -98q0 -70 -22.5 -126.5t-58 -93.5t-78.5 -66.5t-86 -53.5t-78.5 -48t-58 -56.5t-22.5 -71.5q0 -36 26.5 -56t78.5 -20q114 0 241 121l201 -185 q-218 -221 -512 -221q-203 0 -309.5 86.5t-106.5 220.5zM354 821q0 88 66.5 154.5t152.5 66.5q76 0 125.5 -52t49.5 -128q0 -86 -66 -151.5t-154 -65.5q-74 0 -124 51t-50 125z" />
<glyph unicode="&#xc0;" horiz-adv-x="1198" d="M-115 0l613 1423h448l215 -1423h-393l-23 291h-372l-101 -291h-387zM467 561h260l-47 617zM477 1720l141 271l455 -281l-100 -184z" />
<glyph unicode="&#xc1;" horiz-adv-x="1198" d="M-115 0l613 1423h448l215 -1423h-393l-23 291h-372l-101 -291h-387zM467 561h260l-47 617zM467 1708l465 281l133 -269l-502 -196z" />
<glyph unicode="&#xc2;" horiz-adv-x="1198" d="M-115 0l613 1423h448l215 -1423h-393l-23 291h-372l-101 -291h-387zM375 1688l325 276h218l247 -276l-137 -146l-248 176l-295 -176zM467 561h260l-47 617z" />
<glyph unicode="&#xc3;" horiz-adv-x="1198" d="M-115 0l613 1423h448l215 -1423h-393l-23 291h-372l-101 -291h-387zM362 1634q57 113 136.5 185.5t167.5 72.5q50 0 92 -22.5t73 -45t54 -22.5q35 0 62 21.5t61 68.5l161 -90q-58 -114 -137 -186t-164 -72q-43 0 -85.5 22.5t-77.5 45t-58 22.5q-36 0 -62.5 -21t-60.5 -69 zM467 561h260l-47 617z" />
<glyph unicode="&#xc4;" horiz-adv-x="1198" d="M-115 0l613 1423h448l215 -1423h-393l-23 291h-372l-101 -291h-387zM350 1747q9 69 67 118.5t130 49.5q76 0 121.5 -53.5t33.5 -128.5q-9 -71 -66 -120.5t-130 -49.5q-75 0 -120.5 53t-35.5 131zM467 561h260l-47 617zM829 1747q9 69 67.5 118.5t129.5 49.5 q78 0 123 -53.5t33 -128.5q-9 -71 -65.5 -120.5t-129.5 -49.5q-76 0 -122 53.5t-36 130.5z" />
<glyph unicode="&#xc5;" horiz-adv-x="1198" d="M-115 0l613 1423h448l215 -1423h-393l-23 291h-372l-101 -291h-387zM467 561h260l-47 617zM477 1776q16 116 106.5 197t221.5 81q135 0 205.5 -84.5t54.5 -206.5q-16 -116 -107.5 -197t-222.5 -81q-135 0 -205.5 85t-52.5 206zM680 1763q-7 -44 14.5 -69t59.5 -25 q41 0 69 27.5t37 79.5q6 46 -14 71t-58 25q-41 0 -71 -28.5t-37 -80.5z" />
<glyph unicode="&#xc6;" horiz-adv-x="1718" d="M-125 0l725 1423h1118l-76 -268h-522l15 -305h483l-33 -262h-438l16 -320h467l-39 -268h-762l-8 291h-411l-134 -291h-401zM532 561h283l-14 588z" />
<glyph unicode="&#xc7;" horiz-adv-x="1163" d="M66 553q0 87 12 174.5t39.5 177.5t68.5 170.5t101.5 151.5t135 122t173.5 81t213 30q278 0 434 -176l-205 -199q-96 99 -223 99q-81 0 -146 -43.5t-104.5 -110.5t-66 -154t-37 -166.5t-10.5 -154.5q0 -155 59.5 -230t169.5 -75q74 0 138.5 31.5t144.5 91.5l139 -221 q-187 -165 -414 -187l-10 -57q94 -12 142 -62t48 -129q0 -44 -18 -88t-56 -86t-109 -68t-165 -26q-135 0 -231 70l100 157q55 -34 121 -34q101 0 104 63q1 32 -39 44.5t-139 12.5l53 213q-202 37 -312.5 185t-110.5 393z" />
<glyph unicode="&#xc8;" horiz-adv-x="1052" d="M35 0l198 1423h887l-76 -268h-477l-43 -303h416l-33 -260h-418l-47 -324h512l-36 -268h-883zM434 1720l141 271l455 -281l-100 -184z" />
<glyph unicode="&#xc9;" horiz-adv-x="1052" d="M35 0l198 1423h887l-76 -268h-477l-43 -303h416l-33 -260h-418l-47 -324h512l-36 -268h-883zM424 1708l465 281l133 -269l-502 -196z" />
<glyph unicode="&#xca;" horiz-adv-x="1052" d="M35 0l198 1423h887l-76 -268h-477l-43 -303h416l-33 -260h-418l-47 -324h512l-36 -268h-883zM330 1688l325 276h217l248 -276l-137 -146l-248 176l-295 -176z" />
<glyph unicode="&#xcb;" horiz-adv-x="1052" d="M35 0l198 1423h887l-76 -268h-477l-43 -303h416l-33 -260h-418l-47 -324h512l-36 -268h-883zM307 1747q9 69 67 118.5t130 49.5q76 0 121.5 -53.5t33.5 -128.5q-9 -71 -66 -120.5t-130 -49.5q-75 0 -120.5 53t-35.5 131zM786 1747q9 69 67.5 118.5t129.5 49.5 q78 0 123 -53.5t33 -128.5q-9 -71 -65.5 -120.5t-129.5 -49.5q-76 0 -122 53.5t-36 130.5z" />
<glyph unicode="&#xcc;" horiz-adv-x="591" d="M35 0l198 1423h373l-198 -1423h-373zM174 1720l141 271l455 -281l-100 -184z" />
<glyph unicode="&#xcd;" horiz-adv-x="591" d="M35 0l198 1423h373l-198 -1423h-373zM164 1708l465 281l133 -269l-502 -196z" />
<glyph unicode="&#xce;" horiz-adv-x="591" d="M35 0l198 1423h373l-198 -1423h-373zM70 1688l325 276h217l248 -276l-137 -146l-248 176l-295 -176z" />
<glyph unicode="&#xcf;" horiz-adv-x="591" d="M35 0l198 1423h373l-198 -1423h-373zM47 1747q9 69 67 118.5t130 49.5q76 0 121.5 -53.5t33.5 -128.5q-9 -71 -66 -120.5t-130 -49.5q-75 0 -120.5 53t-35.5 131zM526 1747q9 69 67.5 118.5t129.5 49.5q78 0 123 -53.5t33 -128.5q-9 -71 -65.5 -120.5t-129.5 -49.5 q-76 0 -122 53.5t-36 130.5z" />
<glyph unicode="&#xd0;" horiz-adv-x="1245" d="M-39 0l86 612h-31l29 222h33l82 589h415q109 0 199 -13.5t176.5 -50.5t145.5 -96t95 -156t36 -224q0 -146 -24.5 -271t-84 -240t-151 -195.5t-234 -128.5t-323.5 -48h-449zM371 270h94q75 0 136 27t101 75t69 107t44 130.5t22 137t7 134.5q0 155 -63 213.5t-189 58.5h-98 l-45 -319h339l-30 -222h-340z" />
<glyph unicode="&#xd1;" horiz-adv-x="1323" d="M35 0l198 1423h463l224 -1112q-10 132 -7.5 286.5t27.5 328.5l70 497h327l-198 -1423h-471l-217 1110q9 -110 5 -285t-30 -364l-66 -461h-325zM430 1634q57 114 136 186t167 72q50 0 92 -22.5t73 -45t54 -22.5q35 0 62 21.5t61 68.5l162 -90q-58 -114 -137 -186t-164 -72 q-43 0 -85.5 22.5t-77.5 45t-58 22.5q-36 0 -62.5 -21t-60.5 -69z" />
<glyph unicode="&#xd2;" horiz-adv-x="1392" d="M66 547q0 86 11.5 172t37.5 177t66 172t100.5 153.5t136.5 125t178.5 83t222.5 30.5q267 0 411 -153t144 -433q0 -122 -22 -241.5t-77.5 -243t-138.5 -216t-217 -151.5t-301 -59q-265 0 -408.5 153.5t-143.5 430.5zM449 508q0 -143 49 -207.5t149 -64.5q59 0 109 26 t84.5 68.5t61.5 101.5t43 120.5t26.5 130.5t14 125.5t3.5 111.5q0 140 -48 204t-148 64q-59 0 -109 -26t-85 -69t-62 -102t-43 -120.5t-26.5 -129.5t-14.5 -124t-4 -109zM575 1720l142 271l454 -281l-100 -184z" />
<glyph unicode="&#xd3;" horiz-adv-x="1392" d="M66 547q0 86 11.5 172t37.5 177t66 172t100.5 153.5t136.5 125t178.5 83t222.5 30.5q267 0 411 -153t144 -433q0 -122 -22 -241.5t-77.5 -243t-138.5 -216t-217 -151.5t-301 -59q-265 0 -408.5 153.5t-143.5 430.5zM449 508q0 -143 49 -207.5t149 -64.5q59 0 109 26 t84.5 68.5t61.5 101.5t43 120.5t26.5 130.5t14 125.5t3.5 111.5q0 140 -48 204t-148 64q-59 0 -109 -26t-85 -69t-62 -102t-43 -120.5t-26.5 -129.5t-14.5 -124t-4 -109zM565 1708l465 281l133 -269l-501 -196z" />
<glyph unicode="&#xd4;" horiz-adv-x="1392" d="M66 547q0 86 11.5 172t37.5 177t66 172t100.5 153.5t136.5 125t178.5 83t222.5 30.5q267 0 411 -153t144 -433q0 -122 -22 -241.5t-77.5 -243t-138.5 -216t-217 -151.5t-301 -59q-265 0 -408.5 153.5t-143.5 430.5zM449 508q0 -143 49 -207.5t149 -64.5q59 0 109 26 t84.5 68.5t61.5 101.5t43 120.5t26.5 130.5t14 125.5t3.5 111.5q0 140 -48 204t-148 64q-59 0 -109 -26t-85 -69t-62 -102t-43 -120.5t-26.5 -129.5t-14.5 -124t-4 -109zM471 1688l326 276h217l248 -276l-138 -146l-247 176l-295 -176z" />
<glyph unicode="&#xd5;" horiz-adv-x="1392" d="M66 547q0 86 11.5 172t37.5 177t66 172t100.5 153.5t136.5 125t178.5 83t222.5 30.5q267 0 411 -153t144 -433q0 -122 -22 -241.5t-77.5 -243t-138.5 -216t-217 -151.5t-301 -59q-265 0 -408.5 153.5t-143.5 430.5zM449 508q0 -143 49 -207.5t149 -64.5q59 0 109 26 t84.5 68.5t61.5 101.5t43 120.5t26.5 130.5t14 125.5t3.5 111.5q0 140 -48 204t-148 64q-59 0 -109 -26t-85 -69t-62 -102t-43 -120.5t-26.5 -129.5t-14.5 -124t-4 -109zM461 1634q57 114 136 186t167 72q50 0 92 -22.5t73 -45t54 -22.5q35 0 62 21.5t61 68.5l162 -90 q-58 -114 -137 -186t-164 -72q-43 0 -86 22.5t-78 45t-58 22.5q-36 0 -61.5 -21t-60.5 -69z" />
<glyph unicode="&#xd6;" horiz-adv-x="1392" d="M66 547q0 86 11.5 172t37.5 177t66 172t100.5 153.5t136.5 125t178.5 83t222.5 30.5q267 0 411 -153t144 -433q0 -122 -22 -241.5t-77.5 -243t-138.5 -216t-217 -151.5t-301 -59q-265 0 -408.5 153.5t-143.5 430.5zM449 508q0 -143 49 -207.5t149 -64.5q59 0 109 26 t84.5 68.5t61.5 101.5t43 120.5t26.5 130.5t14 125.5t3.5 111.5q0 140 -48 204t-148 64q-59 0 -109 -26t-85 -69t-62 -102t-43 -120.5t-26.5 -129.5t-14.5 -124t-4 -109zM449 1747q9 69 66.5 118.5t129.5 49.5q76 0 122 -53.5t34 -128.5q-9 -71 -66.5 -120.5t-130.5 -49.5 q-75 0 -120 53t-35 131zM928 1747q9 69 67 118.5t129 49.5q78 0 123 -53.5t33 -128.5q-9 -71 -65.5 -120.5t-129.5 -49.5q-75 0 -121 53t-36 131z" />
<glyph unicode="&#xd7;" horiz-adv-x="1050" d="M78 391l270 236l-205 235l222 199l198 -242l262 242l170 -199l-270 -235l203 -236l-217 -196l-199 239l-264 -239z" />
<glyph unicode="&#xd8;" horiz-adv-x="1392" d="M66 547q0 86 11.5 172t37.5 177t66 172t100.5 153.5t136.5 125t178.5 83t222.5 30.5q32 0 90 -4l111 244l266 -74l-121 -262q209 -150 209 -490q0 -122 -22 -241.5t-77.5 -243t-138.5 -216t-217 -151.5t-301 -59q-32 0 -90 4l-110 -248l-266 76l120 266 q-206 150 -206 486zM440 508q0 -106 21 -174l370 852l-38 2q-59 0 -109.5 -26t-86 -69t-63.5 -102t-45.5 -121t-28.5 -129.5t-15.5 -124t-4.5 -108.5zM608 236h39q69 0 125.5 34t93 92t63.5 128t41 150t20.5 148t6.5 132q0 100 -20 165z" />
<glyph unicode="&#xd9;" horiz-adv-x="1304" d="M80 481l133 942h371l-131 -936q-19 -129 15.5 -188t133.5 -59q103 0 158 62t74 192l131 929h372l-131 -948q-16 -110 -64 -202.5t-125.5 -162t-191 -108.5t-250.5 -39q-141 0 -244.5 37.5t-162.5 106.5t-81.5 163.5t-6.5 210.5zM530 1720l142 271l454 -281l-100 -184z " />
<glyph unicode="&#xda;" horiz-adv-x="1304" d="M80 481l133 942h371l-131 -936q-19 -129 15.5 -188t133.5 -59q103 0 158 62t74 192l131 929h372l-131 -948q-16 -110 -64 -202.5t-125.5 -162t-191 -108.5t-250.5 -39q-141 0 -244.5 37.5t-162.5 106.5t-81.5 163.5t-6.5 210.5zM520 1708l465 281l133 -269l-502 -196z " />
<glyph unicode="&#xdb;" horiz-adv-x="1304" d="M80 481l133 942h371l-131 -936q-19 -129 15.5 -188t133.5 -59q103 0 158 62t74 192l131 929h372l-131 -948q-16 -110 -64 -202.5t-125.5 -162t-191 -108.5t-250.5 -39q-141 0 -244.5 37.5t-162.5 106.5t-81.5 163.5t-6.5 210.5zM426 1688l326 276h217l248 -276l-138 -146 l-248 176l-294 -176z" />
<glyph unicode="&#xdc;" horiz-adv-x="1304" d="M80 481l133 942h371l-131 -936q-19 -129 15.5 -188t133.5 -59q103 0 158 62t74 192l131 929h372l-131 -948q-16 -110 -64 -202.5t-125.5 -162t-191 -108.5t-250.5 -39q-141 0 -244.5 37.5t-162.5 106.5t-81.5 163.5t-6.5 210.5zM403 1747q9 69 67 118.5t130 49.5 q76 0 122 -53.5t34 -128.5q-9 -71 -66.5 -120.5t-130.5 -49.5q-75 0 -120.5 53t-35.5 131zM883 1747q9 69 67 118.5t129 49.5q78 0 123 -53.5t33 -128.5q-9 -71 -65.5 -120.5t-129.5 -49.5q-75 0 -121 53t-36 131z" />
<glyph unicode="&#xdd;" horiz-adv-x="1220" d="M100 1423h400l149 -604l320 604h397l-571 -893l-74 -530h-373l74 528zM479 1708l465 281l133 -269l-502 -196z" />
<glyph unicode="&#xde;" horiz-adv-x="1220" d="M35 0l198 1423h371l-31 -217h105q258 0 398.5 -103.5t140.5 -311.5q0 -77 -17.5 -151t-63.5 -150.5t-115 -134t-182 -94t-255 -36.5h-148l-30 -225h-371zM475 496h105q59 0 104.5 19t72.5 48t44.5 68.5t23.5 75.5t6 73q0 160 -190 160h-104z" />
<glyph unicode="&#xdf;" horiz-adv-x="1224" d="M-221 -199q119 43 181.5 105t80.5 178l139 1008q31 221 174.5 344t380.5 123q191 0 293 -84.5t102 -219.5q0 -52 -18 -96.5t-45.5 -73t-59 -57t-59 -50t-45.5 -50.5t-18 -60q0 -27 16 -52.5t42 -48t57 -47t62.5 -56t57.5 -68t42 -90.5t16 -117q0 -76 -27 -148.5t-81 -136 t-148 -102.5t-215 -39q-139 0 -256 62l135 237q40 -22 90 -22q38 0 66 13.5t41 34.5t18.5 40.5t5.5 38.5q0 49 -25 89.5t-60.5 71.5t-71 64t-60.5 81t-25 107q0 52 12.5 95t32 73t43 57t47.5 50.5t43.5 48t32 56.5t12.5 69q0 36 -22.5 57t-63.5 21q-134 0 -161 -209 l-135 -961q-15 -108 -50.5 -195.5t-82.5 -148.5t-114.5 -110t-135 -81t-154.5 -61z" />
<glyph unicode="&#xe0;" d="M37 401q0 99 20.5 197t69 195t119.5 170.5t181.5 119t246.5 45.5q256 0 465 -120l-99 -676q-4 -36 -4 -47q0 -34 12.5 -52.5t41.5 -29.5l-103 -234q-99 6 -171 51.5t-99 129.5q-124 -187 -322 -187q-176 0 -267 116t-91 322zM403 401q0 -99 29.5 -137.5t79.5 -38.5 q94 0 180 137l74 496q-49 16 -104 16q-69 0 -121.5 -44.5t-81 -117t-42.5 -151t-14 -160.5zM485 1462l172 271l408 -287l-119 -180z" />
<glyph unicode="&#xe1;" d="M37 401q0 99 20.5 197t69 195t119.5 170.5t181.5 119t246.5 45.5q256 0 465 -120l-99 -676q-4 -36 -4 -47q0 -34 12.5 -52.5t41.5 -29.5l-103 -234q-99 6 -171 51.5t-99 129.5q-124 -187 -322 -187q-176 0 -267 116t-91 322zM403 401q0 -99 29.5 -137.5t79.5 -38.5 q94 0 180 137l74 496q-49 16 -104 16q-69 0 -121.5 -44.5t-81 -117t-42.5 -151t-14 -160.5zM442 1448l488 285l100 -271l-516 -196z" />
<glyph unicode="&#xe2;" d="M37 401q0 99 20.5 197t69 195t119.5 170.5t181.5 119t246.5 45.5q256 0 465 -120l-99 -676q-4 -36 -4 -47q0 -34 12.5 -52.5t41.5 -29.5l-103 -234q-99 6 -171 51.5t-99 129.5q-124 -187 -322 -187q-176 0 -267 116t-91 322zM352 1407l328 295h217l246 -295l-142 -145 l-241 192l-297 -192zM403 401q0 -99 29.5 -137.5t79.5 -38.5q94 0 180 137l74 496q-49 16 -104 16q-69 0 -121.5 -44.5t-81 -117t-42.5 -151t-14 -160.5z" />
<glyph unicode="&#xe3;" d="M37 401q0 99 20.5 197t69 195t119.5 170.5t181.5 119t246.5 45.5q256 0 465 -120l-99 -676q-4 -36 -4 -47q0 -34 12.5 -52.5t41.5 -29.5l-103 -234q-99 6 -171 51.5t-99 129.5q-124 -187 -322 -187q-176 0 -267 116t-91 322zM352 1376q57 114 136 186t167 72 q50 0 92 -22.5t73 -45t54 -22.5q35 0 62 21.5t61 68.5l162 -90q-58 -114 -137 -186t-164 -72q-43 0 -85.5 22.5t-77.5 45t-58 22.5q-36 0 -62.5 -21t-60.5 -69zM403 401q0 -99 29.5 -137.5t79.5 -38.5q94 0 180 137l74 496q-49 16 -104 16q-69 0 -121.5 -44.5t-81 -117 t-42.5 -151t-14 -160.5z" />
<glyph unicode="&#xe4;" d="M37 401q0 99 20.5 197t69 195t119.5 170.5t181.5 119t246.5 45.5q256 0 465 -120l-99 -676q-4 -36 -4 -47q0 -34 12.5 -52.5t41.5 -29.5l-103 -234q-99 6 -171 51.5t-99 129.5q-124 -187 -322 -187q-176 0 -267 116t-91 322zM332 1489q9 69 66.5 118.5t129.5 49.5 q76 0 122 -53.5t34 -128.5q-9 -71 -66.5 -120.5t-130.5 -49.5q-75 0 -120 53t-35 131zM403 401q0 -99 29.5 -137.5t79.5 -38.5q94 0 180 137l74 496q-49 16 -104 16q-69 0 -121.5 -44.5t-81 -117t-42.5 -151t-14 -160.5zM811 1489q9 69 67.5 118.5t129.5 49.5 q78 0 122.5 -53.5t32.5 -128.5q-9 -71 -65 -120.5t-129 -49.5q-76 0 -122 53.5t-36 130.5z" />
<glyph unicode="&#xe5;" d="M37 401q0 99 20.5 197t69 195t119.5 170.5t181.5 119t246.5 45.5q256 0 465 -120l-99 -676q-4 -36 -4 -47q0 -34 12.5 -52.5t41.5 -29.5l-103 -234q-99 6 -171 51.5t-99 129.5q-124 -187 -322 -187q-176 0 -267 116t-91 322zM403 401q0 -99 29.5 -137.5t79.5 -38.5 q94 0 180 137l74 496q-49 16 -104 16q-69 0 -121.5 -44.5t-81 -117t-42.5 -151t-14 -160.5zM471 1518q16 116 106.5 197t221.5 81q135 0 205.5 -84.5t54.5 -206.5q-16 -116 -107.5 -197t-222.5 -81q-135 0 -205.5 85t-52.5 206zM674 1505q-7 -44 14.5 -69t59.5 -25 q41 0 69 27.5t37 79.5q6 46 -14 71t-58 25q-41 0 -71 -28.5t-37 -80.5z" />
<glyph unicode="&#xe6;" horiz-adv-x="1732" d="M12 260q0 63 15.5 118.5t56 110t103.5 93t166.5 62.5t236.5 24h106q7 26 35 96q-9 50 -62 75t-139 25q-113 0 -278 -53l-53 238q205 79 411 79q116 0 190.5 -35t127.5 -104q61 63 159.5 101t208.5 38q199 0 309.5 -85.5t110.5 -219.5q0 -363 -696 -428q6 -97 52 -133.5 t128 -36.5q124 0 273 101l126 -213q-208 -150 -446 -150q-287 0 -405 176q-87 -95 -185 -135.5t-215 -40.5q-154 0 -245 81.5t-91 215.5zM389 313q0 -43 23.5 -68.5t72.5 -25.5q85 0 189 109q-8 44 -8 135h-72q-97 0 -151 -38t-54 -112zM1034 606q74 5 133 21.5t94 37.5 t57.5 46.5t31 47.5t8.5 42q0 92 -101 92q-47 0 -86 -24t-65 -66.5t-43.5 -91t-28.5 -105.5z" />
<glyph unicode="&#xe7;" horiz-adv-x="960" d="M39 438q0 89 21 180.5t69.5 184t118.5 164t178.5 116.5t239.5 45q216 0 358 -145l-174 -207q-82 76 -182 76q-73 0 -126 -40.5t-79 -107.5t-37.5 -135t-11.5 -141q0 -100 40 -141t115 -41q51 0 96 17t109 56l131 -229q-152 -111 -327 -125l-11 -57q94 -12 142.5 -62 t48.5 -129q0 -44 -18 -88t-56 -86t-109 -68t-165 -26q-136 0 -232 70l101 157q55 -34 120 -34q102 0 105 63q1 32 -39 44.5t-139 12.5l53 215q-162 37 -251 158t-89 303z" />
<glyph unicode="&#xe8;" horiz-adv-x="1101" d="M41 428q0 66 10 132.5t33 136t57.5 132t86 117.5t115 95t148.5 63.5t183 23.5q199 0 310.5 -85.5t111.5 -219.5q0 -364 -697 -430q11 -168 179 -168q67 0 131 24t143 77l127 -213q-211 -150 -449 -150q-243 0 -366 125t-123 340zM414 606q92 6 159 28t100 52.5t47.5 59 t14.5 55.5q0 92 -98 92q-47 0 -86 -24t-65 -66.5t-43.5 -91t-28.5 -105.5zM428 1462l172 271l408 -287l-119 -180z" />
<glyph unicode="&#xe9;" horiz-adv-x="1101" d="M41 428q0 66 10 132.5t33 136t57.5 132t86 117.5t115 95t148.5 63.5t183 23.5q199 0 310.5 -85.5t111.5 -219.5q0 -364 -697 -430q11 -168 179 -168q67 0 131 24t143 77l127 -213q-211 -150 -449 -150q-243 0 -366 125t-123 340zM385 1448l487 285l101 -271l-516 -196z M414 606q92 6 159 28t100 52.5t47.5 59t14.5 55.5q0 92 -98 92q-47 0 -86 -24t-65 -66.5t-43.5 -91t-28.5 -105.5z" />
<glyph unicode="&#xea;" horiz-adv-x="1101" d="M41 428q0 66 10 132.5t33 136t57.5 132t86 117.5t115 95t148.5 63.5t183 23.5q199 0 310.5 -85.5t111.5 -219.5q0 -364 -697 -430q11 -168 179 -168q67 0 131 24t143 77l127 -213q-211 -150 -449 -150q-243 0 -366 125t-123 340zM295 1407l328 295h217l245 -295 l-141 -145l-242 192l-296 -192zM414 606q92 6 159 28t100 52.5t47.5 59t14.5 55.5q0 92 -98 92q-47 0 -86 -24t-65 -66.5t-43.5 -91t-28.5 -105.5z" />
<glyph unicode="&#xeb;" horiz-adv-x="1101" d="M41 428q0 66 10 132.5t33 136t57.5 132t86 117.5t115 95t148.5 63.5t183 23.5q199 0 310.5 -85.5t111.5 -219.5q0 -364 -697 -430q11 -168 179 -168q67 0 131 24t143 77l127 -213q-211 -150 -449 -150q-243 0 -366 125t-123 340zM274 1489q9 69 67 118.5t130 49.5 q76 0 122 -53.5t34 -128.5q-9 -71 -66.5 -120.5t-130.5 -49.5q-75 0 -120.5 53t-35.5 131zM414 606q92 6 159 28t100 52.5t47.5 59t14.5 55.5q0 92 -98 92q-47 0 -86 -24t-65 -66.5t-43.5 -91t-28.5 -105.5zM754 1489q9 69 67 118.5t129 49.5q78 0 123 -53.5t33 -128.5 q-9 -71 -65.5 -120.5t-129.5 -49.5q-75 0 -121 53t-36 131z" />
<glyph unicode="&#xec;" horiz-adv-x="567" d="M29 0l151 1092h359l-152 -1092h-358zM141 1462l172 271l408 -287l-119 -180z" />
<glyph unicode="&#xed;" horiz-adv-x="567" d="M29 0l151 1092h359l-152 -1092h-358zM98 1448l488 285l100 -271l-516 -196z" />
<glyph unicode="&#xee;" horiz-adv-x="567" d="M8 1407l328 295h217l246 -295l-142 -145l-241 192l-297 -192zM29 0l151 1092h359l-152 -1092h-358z" />
<glyph unicode="&#xef;" horiz-adv-x="567" d="M-12 1489q9 69 66.5 118.5t129.5 49.5q76 0 122 -53.5t34 -128.5q-9 -71 -66.5 -120.5t-130.5 -49.5q-75 0 -120 53t-35 131zM29 0l151 1092h359l-152 -1092h-358zM467 1489q9 69 67.5 118.5t129.5 49.5q78 0 122.5 -53.5t32.5 -128.5q-9 -71 -65 -120.5t-129 -49.5 q-76 0 -122 53.5t-36 130.5z" />
<glyph unicode="&#xf0;" horiz-adv-x="1167" d="M33 401q0 81 18.5 162t58.5 157.5t96.5 135t140 94t181.5 35.5q146 0 252 -88q-18 90 -52.5 156.5t-100.5 126.5l-119 -107l-209 105l119 110q-102 27 -162 37l96 231q149 -23 279 -73l176 164l160 -158l-125 -117q150 -119 218 -267.5t68 -338.5q0 -101 -14 -199 q-18 -125 -67 -233.5t-125 -192t-184 -131t-236 -47.5q-208 0 -338.5 116t-130.5 322zM397 389q0 -164 131 -164q89 0 140.5 76t74.5 223q14 87 19 146q-57 63 -158 63q-60 0 -103.5 -34t-64.5 -89.5t-30 -109.5t-9 -111z" />
<glyph unicode="&#xf1;" horiz-adv-x="1155" d="M29 0l151 1092h312l-3 -187q65 100 166 161.5t195 61.5q136 0 202 -87.5t44 -241.5l-111 -799h-358l106 709q11 70 -3.5 96t-49.5 26q-44 0 -99.5 -65.5t-111.5 -181.5l-82 -584h-358zM313 1376q57 114 136 186t167 72q40 0 75.5 -14t56.5 -31t45 -31t43 -14 q34 0 61 21.5t61 68.5l162 -90q-58 -114 -137 -186t-164 -72q-43 0 -85.5 22.5t-77.5 45t-58 22.5q-36 0 -62.5 -21t-60.5 -69z" />
<glyph unicode="&#xf2;" d="M41 430q0 70 9.5 138t32 138t55.5 131t83.5 115t113 92.5t146.5 61t181 22.5q222 0 346 -125t122 -341q-1 -99 -20 -193.5t-65.5 -187.5t-115 -162.5t-177.5 -112.5t-244 -43q-221 0 -344 123.5t-123 343.5zM408 410q0 -97 31 -140t98 -43q47 0 84.5 22.5t61 62t40 84.5 t25 100t12 98t4.5 88q1 95 -30.5 138.5t-98.5 43.5q-56 0 -98.5 -33t-66 -81.5t-38.5 -114t-19.5 -118.5t-4.5 -107zM430 1462l172 271l408 -287l-119 -180z" />
<glyph unicode="&#xf3;" d="M41 430q0 70 9.5 138t32 138t55.5 131t83.5 115t113 92.5t146.5 61t181 22.5q222 0 346 -125t122 -341q-1 -99 -20 -193.5t-65.5 -187.5t-115 -162.5t-177.5 -112.5t-244 -43q-221 0 -344 123.5t-123 343.5zM387 1448l487 285l101 -271l-516 -196zM408 410q0 -97 31 -140 t98 -43q47 0 84.5 22.5t61 62t40 84.5t25 100t12 98t4.5 88q1 95 -30.5 138.5t-98.5 43.5q-56 0 -98.5 -33t-66 -81.5t-38.5 -114t-19.5 -118.5t-4.5 -107z" />
<glyph unicode="&#xf4;" d="M41 430q0 70 9.5 138t32 138t55.5 131t83.5 115t113 92.5t146.5 61t181 22.5q222 0 346 -125t122 -341q-1 -99 -20 -193.5t-65.5 -187.5t-115 -162.5t-177.5 -112.5t-244 -43q-221 0 -344 123.5t-123 343.5zM297 1407l328 295h217l245 -295l-141 -145l-241 192l-297 -192 zM408 410q0 -97 31 -140t98 -43q47 0 84.5 22.5t61 62t40 84.5t25 100t12 98t4.5 88q1 95 -30.5 138.5t-98.5 43.5q-56 0 -98.5 -33t-66 -81.5t-38.5 -114t-19.5 -118.5t-4.5 -107z" />
<glyph unicode="&#xf5;" d="M41 430q0 70 9.5 138t32 138t55.5 131t83.5 115t113 92.5t146.5 61t181 22.5q222 0 346 -125t122 -341q-1 -99 -20 -193.5t-65.5 -187.5t-115 -162.5t-177.5 -112.5t-244 -43q-221 0 -344 123.5t-123 343.5zM297 1376q57 114 136 186t167 72q50 0 92 -22.5t73 -45 t54 -22.5q35 0 62 21.5t61 68.5l162 -90q-58 -114 -137 -186t-164 -72q-43 0 -85.5 22.5t-77.5 45t-58 22.5q-36 0 -62.5 -21t-60.5 -69zM408 410q0 -97 31 -140t98 -43q47 0 84.5 22.5t61 62t40 84.5t25 100t12 98t4.5 88q1 95 -30.5 138.5t-98.5 43.5q-56 0 -98.5 -33 t-66 -81.5t-38.5 -114t-19.5 -118.5t-4.5 -107z" />
<glyph unicode="&#xf6;" d="M41 430q0 70 9.5 138t32 138t55.5 131t83.5 115t113 92.5t146.5 61t181 22.5q222 0 346 -125t122 -341q-1 -99 -20 -193.5t-65.5 -187.5t-115 -162.5t-177.5 -112.5t-244 -43q-221 0 -344 123.5t-123 343.5zM274 1489q9 69 67 118.5t130 49.5q76 0 122 -53.5t34 -128.5 q-9 -71 -66.5 -120.5t-130.5 -49.5q-75 0 -120.5 53t-35.5 131zM408 410q0 -97 31 -140t98 -43q47 0 84.5 22.5t61 62t40 84.5t25 100t12 98t4.5 88q1 95 -30.5 138.5t-98.5 43.5q-56 0 -98.5 -33t-66 -81.5t-38.5 -114t-19.5 -118.5t-4.5 -107zM754 1489q9 69 67 118.5 t129 49.5q78 0 123 -53.5t33 -128.5q-9 -71 -65.5 -120.5t-129.5 -49.5q-75 0 -121 53t-36 131z" />
<glyph unicode="&#xf7;" horiz-adv-x="1050" d="M86 541l39 278h879l-39 -278h-879zM266 160q0 86 65.5 151.5t153.5 65.5q74 0 123 -51t49 -125q0 -88 -65.5 -154.5t-151.5 -66.5q-76 0 -125 52t-49 128zM406 1163q0 86 65.5 151.5t153.5 65.5q74 0 123 -51t49 -125q0 -88 -65.5 -153.5t-151.5 -65.5q-76 0 -125 51 t-49 127z" />
<glyph unicode="&#xf8;" d="M39 430q0 99 19.5 194t66 187.5t116 162t178 112t243.5 42.5q43 0 63 -2l111 246l249 -78l-120 -254q170 -123 170 -378q-1 -99 -20.5 -193.5t-66.5 -187.5t-116.5 -162.5t-179 -112.5t-244.5 -43q-39 0 -57 2l-109 -244l-248 76l115 250q-170 123 -170 383zM387 410 q0 -53 16 -82l248 534q-6 2 -16 2q-56 0 -100.5 -33t-71.5 -82.5t-44.5 -112.5t-24.5 -119t-7 -107zM524 227h17q67 0 117 48t75.5 123t37.5 146.5t13 137.5q0 52 -12 76z" />
<glyph unicode="&#xf9;" horiz-adv-x="1142" d="M59 309l111 783h358l-98 -717q-10 -70 4.5 -96.5t52.5 -26.5q80 0 175 154l96 686h356l-151 -1092h-312l6 150q-152 -187 -340 -187q-152 0 -216 92t-42 254zM426 1462l172 271l408 -287l-119 -180z" />
<glyph unicode="&#xfa;" horiz-adv-x="1142" d="M59 309l111 783h358l-98 -717q-10 -70 4.5 -96.5t52.5 -26.5q80 0 175 154l96 686h356l-151 -1092h-312l6 150q-152 -187 -340 -187q-152 0 -216 92t-42 254zM383 1448l487 285l101 -271l-516 -196z" />
<glyph unicode="&#xfb;" horiz-adv-x="1142" d="M59 309l111 783h358l-98 -717q-10 -70 4.5 -96.5t52.5 -26.5q80 0 175 154l96 686h356l-151 -1092h-312l6 150q-152 -187 -340 -187q-152 0 -216 92t-42 254zM293 1407l328 295h217l245 -295l-141 -145l-242 192l-297 -192z" />
<glyph unicode="&#xfc;" horiz-adv-x="1142" d="M59 309l111 783h358l-98 -717q-10 -70 4.5 -96.5t52.5 -26.5q80 0 175 154l96 686h356l-151 -1092h-312l6 150q-152 -187 -340 -187q-152 0 -216 92t-42 254zM272 1489q9 69 67 118.5t130 49.5q76 0 122 -53.5t34 -128.5q-9 -71 -66.5 -120.5t-130.5 -49.5 q-75 0 -120.5 53t-35.5 131zM752 1489q9 69 67 118.5t129 49.5q78 0 123 -53.5t33 -128.5q-9 -71 -65.5 -120.5t-129.5 -49.5q-75 0 -121 53t-36 131z" />
<glyph unicode="&#xfd;" horiz-adv-x="1052" d="M-41 -209q157 17 238.5 64t138.5 147l-119 -2l-164 1092h373l47 -863l303 863h375l-475 -1094q-193 -438 -709 -459zM340 1448l487 285l101 -271l-516 -196z" />
<glyph unicode="&#xfe;" horiz-adv-x="1202" d="M-37 -461l279 1983l360 37l-76 -553q56 56 136 89t155 33q167 0 252.5 -109t85.5 -314q0 -101 -16.5 -198.5t-59 -198t-107 -175.5t-168.5 -122.5t-235 -47.5q-96 0 -184 27l-59 -412zM420 248q67 -23 121 -23q65 0 114.5 45t76.5 117t40.5 149.5t13.5 155.5 q0 97 -29.5 134.5t-82.5 37.5q-98 0 -182 -116z" />
<glyph unicode="&#xff;" horiz-adv-x="1052" d="M-41 -209q157 17 238.5 64t138.5 147l-119 -2l-164 1092h373l47 -863l303 863h375l-475 -1094q-193 -438 -709 -459zM229 1489q9 69 67 118.5t130 49.5q76 0 122 -53.5t34 -128.5q-9 -71 -66.5 -120.5t-130.5 -49.5q-75 0 -120.5 53t-35.5 131zM709 1489q9 69 67 118.5 t129 49.5q78 0 123 -53.5t33 -128.5q-9 -71 -65.5 -120.5t-129.5 -49.5q-75 0 -121 53t-36 131z" />
<glyph unicode="&#x152;" horiz-adv-x="1826" d="M66 545q0 84 11 170t37 177t64.5 172.5t97 154.5t130.5 126t169 84t209 31q118 0 205 -37h903l-75 -268h-560q63 -126 66 -303h389l-33 -260h-381q-43 -195 -151 -324h579l-36 -268h-897q-98 -37 -209 -37q-246 0 -382 152.5t-136 429.5zM446 504q0 -141 45 -204.5 t134 -63.5q73 0 130.5 43t93 111.5t58.5 161.5t32 184.5t9 189.5q0 262 -180 262q-62 0 -113 -29.5t-85.5 -82.5t-59 -118.5t-38.5 -145t-20 -154.5t-6 -154z" />
<glyph unicode="&#x153;" horiz-adv-x="1810" d="M39 430q0 99 19.5 194t66 187.5t116 162t178 112t243.5 42.5q195 0 333 -159q156 159 389 159q198 0 309 -85.5t111 -219.5q0 -365 -696 -430q11 -168 178 -168q67 0 131.5 24.5t143.5 76.5l127 -213q-211 -150 -447 -150q-239 0 -360 150q-147 -150 -373 -150 q-221 0 -345 123.5t-124 343.5zM403 410q0 -96 33 -139.5t101 -43.5q47 0 84.5 22.5t61.5 62t41.5 85t26.5 99.5t12.5 98t4.5 88q3 182 -133 182q-56 0 -99 -33t-67.5 -82t-40 -113.5t-20.5 -118.5t-5 -107zM1122 606q92 6 159 28t100.5 52.5t48 59t14.5 55.5q0 92 -98 92 q-62 0 -110 -43.5t-73.5 -104.5t-40.5 -139z" />
<glyph unicode="&#x178;" horiz-adv-x="1220" d="M100 1423h400l149 -604l320 604h397l-571 -893l-74 -530h-373l74 528zM362 1747q9 69 67 118.5t130 49.5q76 0 122 -53.5t34 -128.5q-9 -71 -66.5 -120.5t-130.5 -49.5q-75 0 -120.5 53t-35.5 131zM842 1747q9 69 67 118.5t129 49.5q78 0 123 -53.5t33 -128.5 q-9 -71 -65.5 -120.5t-129.5 -49.5q-75 0 -121 53t-36 131z" />
<glyph unicode="&#x2c6;" horiz-adv-x="907" d="M178 1407l328 295h217l246 -295l-142 -145l-241 192l-297 -192z" />
<glyph unicode="&#x2dc;" horiz-adv-x="897" d="M174 1376q57 114 136 186t167 72q50 0 92 -22.5t73 -45t54 -22.5q35 0 62 21.5t61 68.5l162 -90q-58 -114 -137 -186t-164 -72q-43 0 -85.5 22.5t-77.5 45t-58 22.5q-36 0 -62.5 -21t-60.5 -69z" />
<glyph unicode="&#x2000;" horiz-adv-x="1027" />
<glyph unicode="&#x2001;" horiz-adv-x="2054" />
<glyph unicode="&#x2002;" horiz-adv-x="1027" />
<glyph unicode="&#x2003;" horiz-adv-x="2054" />
<glyph unicode="&#x2004;" horiz-adv-x="684" />
<glyph unicode="&#x2005;" horiz-adv-x="513" />
<glyph unicode="&#x2006;" horiz-adv-x="342" />
<glyph unicode="&#x2007;" horiz-adv-x="342" />
<glyph unicode="&#x2008;" horiz-adv-x="256" />
<glyph unicode="&#x2009;" horiz-adv-x="410" />
<glyph unicode="&#x200a;" horiz-adv-x="114" />
<glyph unicode="&#x2010;" horiz-adv-x="815" d="M70 502l39 278h663l-39 -278h-663z" />
<glyph unicode="&#x2011;" horiz-adv-x="815" d="M70 502l39 278h663l-39 -278h-663z" />
<glyph unicode="&#x2012;" horiz-adv-x="815" d="M70 502l39 278h663l-39 -278h-663z" />
<glyph unicode="&#x2013;" horiz-adv-x="1042" d="M29 502l39 278h972l-39 -278h-972z" />
<glyph unicode="&#x2014;" horiz-adv-x="1601" d="M29 502l39 278h1529l-38 -278h-1530z" />
<glyph unicode="&#x2018;" horiz-adv-x="440" d="M98 1081q0 49 17 92t57 111l182 295h178l-131 -330q64 -54 64 -131q0 -81 -58.5 -136.5t-142.5 -55.5q-72 0 -119 43t-47 112z" />
<glyph unicode="&#x2019;" horiz-adv-x="499" d="M104 924l132 329q-64 50 -64 131q0 80 59 136.5t142 56.5q73 0 119.5 -43.5t46.5 -112.5q0 -50 -16.5 -93.5t-57.5 -108.5l-182 -295h-179z" />
<glyph unicode="&#x201a;" horiz-adv-x="501" d="M-72 -340l131 330q-63 53 -63 131q0 81 58.5 136.5t142.5 55.5q73 0 119 -43t46 -112q0 -51 -16.5 -95t-56.5 -108l-183 -295h-178z" />
<glyph unicode="&#x201c;" horiz-adv-x="878" d="M98 1081q0 49 17 92t57 111l182 295h178l-131 -330q64 -54 64 -131q0 -81 -58.5 -136.5t-142.5 -55.5q-72 0 -119 43t-47 112zM537 1081q0 50 16.5 93t56.5 110l183 295h178l-131 -330q63 -53 63 -131q0 -81 -58.5 -136.5t-142.5 -55.5q-72 0 -118.5 43t-46.5 112z" />
<glyph unicode="&#x201d;" horiz-adv-x="878" d="M106 924l132 329q-64 50 -64 131q0 80 59 136.5t142 56.5q72 0 119 -43.5t47 -112.5q0 -49 -16.5 -91.5t-57.5 -110.5l-182 -295h-179zM545 924l131 329q-64 50 -64 131q0 80 59 136.5t142 56.5q72 0 119 -43.5t47 -112.5q0 -49 -16.5 -91.5t-57.5 -110.5l-184 -295h-176 z" />
<glyph unicode="&#x201e;" horiz-adv-x="878" d="M-72 -340l131 330q-63 53 -63 131q0 81 58.5 136.5t142.5 55.5q73 0 119 -43t46 -112q0 -51 -16.5 -95t-56.5 -108l-183 -295h-178zM367 -340l131 330q-64 54 -64 131q0 81 58.5 136.5t142.5 55.5q72 0 119 -43t47 -112q0 -49 -17 -92t-57 -111l-182 -295h-178z" />
<glyph unicode="&#x2022;" horiz-adv-x="700" d="M76 659q0 141 99.5 239.5t234.5 98.5q115 0 186.5 -72t71.5 -186q0 -141 -98 -239.5t-234 -98.5q-116 0 -188 72.5t-72 185.5z" />
<glyph unicode="&#x2026;" horiz-adv-x="1480" d="M-8 141q0 86 65.5 151.5t153.5 65.5q74 0 124 -51t50 -125q0 -88 -65.5 -153.5t-153.5 -65.5q-76 0 -125 51t-49 127zM487 141q0 86 66 151.5t154 65.5q74 0 123 -51t49 -125q0 -88 -65.5 -153.5t-151.5 -65.5q-76 0 -125.5 51t-49.5 127zM983 141q0 86 65.5 151.5 t153.5 65.5q73 0 122.5 -51t49.5 -125q0 -88 -65.5 -153.5t-153.5 -65.5q-76 0 -124 51t-48 127z" />
<glyph unicode="&#x202f;" horiz-adv-x="410" />
<glyph unicode="&#x2039;" horiz-adv-x="724" d="M47 467l31 227l450 459l205 -149l-315 -422l196 -422l-239 -150z" />
<glyph unicode="&#x203a;" horiz-adv-x="727" d="M4 160l318 422l-199 422l242 149l325 -459l-31 -227l-450 -457z" />
<glyph unicode="&#x205f;" horiz-adv-x="513" />
<glyph unicode="&#x20ac;" horiz-adv-x="1198" d="M-6 442l72 183h116l19 135h-162l70 180h127q82 224 258 351.5t407 127.5q229 0 391 -125l-151 -209q-100 76 -236 76q-107 0 -187 -56t-122 -165h483l-71 -180h-449l-20 -135h419l-69 -183h-365q26 -221 246 -221q142 0 311 90l-32 -274q-169 -74 -336 -74 q-241 0 -382 126t-163 353h-174z" />
<glyph unicode="&#x2122;" horiz-adv-x="1847" d="M154 1219l28 204h727l-61 -204h-215l-86 -613h-256l86 613h-223zM815 606l146 817h323l45 -499l174 499h340l-84 -817h-241l36 303q13 138 60 316l-213 -535h-199l-76 527q-6 -168 -28 -314l-47 -297h-236z" />
<glyph unicode="&#x25fc;" horiz-adv-x="1095" d="M0 0v1096h1096v-1096h-1096z" />
</font>
</defs>
</svg>
